<svg version="1.1" id="Layer_1" xmlns="http://www.w3.org/2000/svg" xmlns:xlink="http://www.w3.org/1999/xlink" x="0px" y="0px"
	 width="100%" viewBox="0 0 195 60" enable-background="new 0 0 195 60" xml:space="preserve">
<path fill="#FDFDFD" opacity="1.000000" stroke="none" 
	d="
M128.000000,61.000000 
	C85.333344,61.000000 43.166687,61.000000 1.000023,61.000000 
	C1.000015,41.000015 1.000015,21.000031 1.000008,1.000033 
	C65.999969,1.000022 130.999939,1.000022 195.999939,1.000011 
	C195.999954,20.999964 195.999954,40.999928 195.999969,60.999947 
	C173.500000,61.000000 151.000000,61.000000 128.000000,61.000000 
M80.589378,48.346413 
	C93.329338,43.667694 93.204605,19.346563 85.627335,12.592051 
	C83.938011,11.086155 81.873642,9.732663 79.744072,9.032414 
	C65.676552,4.406714 55.041851,12.835260 54.552872,28.833786 
	C54.052052,45.219978 63.521301,52.859005 79.436668,48.906822 
	C79.597931,48.866772 79.754448,48.807552 80.589378,48.346413 
M132.977158,39.239658 
	C136.694839,47.620590 142.941086,51.093746 152.132874,49.890976 
	C160.421066,48.806438 165.838898,43.656673 167.029053,34.907799 
	C167.601990,30.696148 167.607376,26.276022 167.027847,22.066202 
	C165.822418,13.309767 160.211472,8.468799 151.603928,7.993351 
	C142.064590,7.466435 134.781708,11.707008 133.083466,20.310728 
	C131.930832,26.150261 132.828323,32.394455 132.977158,39.239658 
M104.614937,23.809494 
	C103.309875,20.050842 101.863060,16.333965 100.739655,12.521779 
	C99.618294,8.716552 97.453484,8.182317 93.893433,9.720361 
	C98.334579,22.160460 102.593933,34.352337 107.144997,46.434341 
	C107.598572,47.638474 109.912178,48.954144 111.210533,48.813629 
	C112.692657,48.653229 114.742813,47.203197 115.272125,45.824482 
	C119.075104,35.918858 122.556633,25.889765 126.134346,15.897767 
	C126.885872,13.798854 127.613243,11.691291 128.342133,9.615108 
	C124.257095,8.049345 122.524323,9.443476 121.748024,12.886002 
	C121.240593,15.136199 120.316101,17.293451 119.562225,19.486774 
	C116.982315,26.992804 114.395248,34.496372 111.365005,43.295681 
	C108.898849,36.100880 106.916542,30.317677 104.614937,23.809494 
M22.616190,11.637211 
	C23.749489,12.233645 24.847345,13.244127 26.023081,13.344762 
	C28.932817,13.593819 31.878195,13.426515 35.135208,13.426515 
	C35.135208,25.533676 35.135208,36.984856 35.135208,48.711037 
	C36.860931,48.711037 38.247238,48.711037 40.181885,48.711037 
	C40.181885,36.979740 40.181885,25.422186 40.181885,13.427075 
	C43.522228,13.427075 46.348541,13.650772 49.110958,13.327866 
	C50.393547,13.177941 51.551907,11.965223 52.766582,11.234296 
	C51.562462,10.489877 50.373692,9.131421 49.151726,9.100871 
	C41.326054,8.905219 33.492069,8.940880 25.663788,9.074472 
	C24.639132,9.091958 23.631447,10.103827 22.616190,11.637211 
z"/>
<path fill="#0B0B0B" opacity="1.000000" stroke="none" 
	d="
M80.251282,48.551846 
	C79.754448,48.807552 79.597931,48.866772 79.436668,48.906822 
	C63.521301,52.859005 54.052052,45.219978 54.552872,28.833786 
	C55.041851,12.835260 65.676552,4.406714 79.744072,9.032414 
	C81.873642,9.732663 83.938011,11.086155 85.627335,12.592051 
	C93.204605,19.346563 93.329338,43.667694 80.251282,48.551846 
M65.338173,43.460022 
	C75.227844,48.415615 83.791168,44.064968 84.752480,33.215103 
	C85.126816,28.990156 84.680824,24.558695 83.802124,20.391325 
	C82.765381,15.474429 79.039696,12.888050 74.071999,12.516348 
	C69.271278,12.157138 65.234413,13.695493 62.640060,18.070156 
	C58.578495,24.918888 59.538773,36.576313 65.338173,43.460022 
z"/>
<path fill="#0B0B0B" opacity="1.000000" stroke="none" 
	d="
M132.893066,38.848671 
	C132.828323,32.394455 131.930832,26.150261 133.083466,20.310728 
	C134.781708,11.707008 142.064590,7.466435 151.603928,7.993351 
	C160.211472,8.468799 165.822418,13.309767 167.027847,22.066202 
	C167.607376,26.276022 167.601990,30.696148 167.029053,34.907799 
	C165.838898,43.656673 160.421066,48.806438 152.132874,49.890976 
	C142.941086,51.093746 136.694839,47.620590 132.893066,38.848671 
M146.934616,45.236282 
	C155.568008,46.029953 160.526321,42.578259 161.616745,34.216331 
	C162.143845,30.174284 161.959305,25.869965 161.175217,21.864849 
	C159.895828,15.329876 155.738068,12.308034 149.611771,12.458070 
	C143.636795,12.604400 139.057495,15.998468 138.173477,22.204073 
	C137.484711,27.038963 137.630005,32.131554 138.315765,36.980774 
	C138.896347,41.086315 141.611343,44.194553 146.934616,45.236282 
z"/>
<path fill="#0C0C0C" opacity="1.000000" stroke="none" 
	d="
M104.774582,24.171982 
	C106.916542,30.317677 108.898849,36.100880 111.365005,43.295681 
	C114.395248,34.496372 116.982315,26.992804 119.562225,19.486774 
	C120.316101,17.293451 121.240593,15.136199 121.748024,12.886002 
	C122.524323,9.443476 124.257095,8.049345 128.342133,9.615108 
	C127.613243,11.691291 126.885872,13.798854 126.134346,15.897767 
	C122.556633,25.889765 119.075104,35.918858 115.272125,45.824482 
	C114.742813,47.203197 112.692657,48.653229 111.210533,48.813629 
	C109.912178,48.954144 107.598572,47.638474 107.144997,46.434341 
	C102.593933,34.352337 98.334579,22.160460 93.893433,9.720361 
	C97.453484,8.182317 99.618294,8.716552 100.739655,12.521779 
	C101.863060,16.333965 103.309875,20.050842 104.774582,24.171982 
z"/>
<path fill="#020202" opacity="1.000000" stroke="none" 
	d="
M22.616045,11.146169 
	C23.631447,10.103827 24.639132,9.091958 25.663788,9.074472 
	C33.492069,8.940880 41.326054,8.905219 49.151726,9.100871 
	C50.373692,9.131421 51.562462,10.489877 52.766582,11.234297 
	C51.551907,11.965223 50.393547,13.177941 49.110958,13.327866 
	C46.348541,13.650772 43.522228,13.427075 40.181885,13.427075 
	C40.181885,25.422186 40.181885,36.979740 40.181885,48.711037 
	C38.247238,48.711037 36.860931,48.711037 35.135208,48.711037 
	C35.135208,36.984856 35.135208,25.533676 35.135208,13.426515 
	C31.878195,13.426515 28.932817,13.593819 26.023081,13.344762 
	C24.847345,13.244127 23.749489,12.233645 22.616045,11.146169 
z"/>
<path fill="#FAFAFA" opacity="1.000000" stroke="none" 
	d="
M65.025223,43.216110 
	C59.538773,36.576313 58.578495,24.918888 62.640060,18.070156 
	C65.234413,13.695493 69.271278,12.157138 74.071999,12.516348 
	C79.039696,12.888050 82.765381,15.474429 83.802124,20.391325 
	C84.680824,24.558695 85.126816,28.990156 84.752480,33.215103 
	C83.791168,44.064968 75.227844,48.415615 65.025223,43.216110 
z"/>
<path fill="#FAFAFA" opacity="1.000000" stroke="none" 
	d="
M146.513840,45.160683 
	C141.611343,44.194553 138.896347,41.086315 138.315765,36.980774 
	C137.630005,32.131554 137.484711,27.038963 138.173477,22.204073 
	C139.057495,15.998468 143.636795,12.604400 149.611771,12.458070 
	C155.738068,12.308034 159.895828,15.329876 161.175217,21.864849 
	C161.959305,25.869965 162.143845,30.174284 161.616745,34.216331 
	C160.526321,42.578259 155.568008,46.029953 146.513840,45.160683 
z"/>
</svg>